PathFileType	4	(X/Y/Z)	C:\Users\Basilio\Documents\Thesis Gigler\squatting_fais\c3dfiles\039\SLS_pre_back5\markers_experimental.trc
DataRate	CameraRate	NumFrames	NumMarkers	Units	OrigDataRate	OrigDataStartFrame	OrigNumFrames
200.000000	200.000000	4	65	mm	200.000000	725	1934
Frame#	Time	FHD			LBHD			RBHD			C7			T10			CLAV			LSHO			LUUPA			LMUPA			LDUPA			LLEP			LMEP			LRAD			LUL			LRFIN			RSHO			RUPA1			RMUPA			RDUPA			RLEP			RMEP			RRAD			RUL			RUFIN			LASI			RASI			USACR			LSACR			RSACR			LTHI1			LTHI2			LTHI3			LTHI4			LLFC			LMFC			LTIB1			LTIB2			LTIB3			LTIB4			LLMAL			LMMAL			LHEE			LMT1			LMT2			LMT5			RTHI			RTHI2			RTHI3			RTHI4			RLFC			RMFC			RTIB1			RTIB2			RTIB3			RTIB4			RLMAL			RMMAL			RHEE			RMT1			RMT2			RMT5			*61			*62			*63			*64			
		X1	Y1	Z1	X2	Y2	Z2	X3	Y3	Z3	X4	Y4	Z4	X5	Y5	Z5	X6	Y6	Z6	X7	Y7	Z7	X8	Y8	Z8	X9	Y9	Z9	X10	Y10	Z10	X11	Y11	Z11	X12	Y12	Z12	X13	Y13	Z13	X14	Y14	Z14	X15	Y15	Z15	X16	Y16	Z16	X17	Y17	Z17	X18	Y18	Z18	X19	Y19	Z19	X20	Y20	Z20	X21	Y21	Z21	X22	Y22	Z22	X23	Y23	Z23	X24	Y24	Z24	X25	Y25	Z25	X26	Y26	Z26	X27	Y27	Z27	X28	Y28	Z28	X29	Y29	Z29	X30	Y30	Z30	X31	Y31	Z31	X32	Y32	Z32	X33	Y33	Z33	X34	Y34	Z34	X35	Y35	Z35	X36	Y36	Z36	X37	Y37	Z37	X38	Y38	Z38	X39	Y39	Z39	X40	Y40	Z40	X41	Y41	Z41	X42	Y42	Z42	X43	Y43	Z43	X44	Y44	Z44	X45	Y45	Z45	X46	Y46	Z46	X47	Y47	Z47	X48	Y48	Z48	X49	Y49	Z49	X50	Y50	Z50	X51	Y51	Z51	X52	Y52	Z52	X53	Y53	Z53	X54	Y54	Z54	X55	Y55	Z55	X56	Y56	Z56	X57	Y57	Z57	X58	Y58	Z58	X59	Y59	Z59	X60	Y60	Z60	X61	Y61	Z61	X62	Y62	Z62	X63	Y63	Z63	X64	Y64	Z64	X65	Y65	Z65	

726	3.625	-222.8151397705079	1728.28857421875	-651.3010864257814	-383.6205139160157	1719.588256835938	-769.9249267578127	-355.0702209472657	1718.109741210938	-631.3195190429689	-438.5062561035157	1556.276977539063	-713.6934204101564	-476.6902465820314	1249.991333007813	-756.1660156250001	nan	nan	nan	-369.3243408203126	1580.178955078125	-865.3748168945315	-205.0345001220704	1552.8701171875	-979.8459472656252	-181.931396484375	1583.657470703125	-947.6180419921877	-135.8583374023438	1563.9931640625	-979.6074829101565	-68.90151977539064	1573.130615234375	-974.3626098632815	-63.06449127197267	1500.423583984375	-946.224548339844	206.1186828613282	1605.822998046875	-875.0242309570315	207.9318084716797	1616.563598632813	-950.6370849609377	282.8978576660157	1650.03759765625	-865.1373291015627	-322.1188049316407	1555.25	-566.9767456054689	-157.478256225586	1492.790283203125	-472.2514038085939	-133.0800018310547	1528.847045898438	-497.3868103027345	-88.77761840820314	1493.523071289063	-475.7346801757814	-27.38634109497071	1511.079223632813	-487.1196899414064	-19.80489540100098	1446.218505859375	-530.0429077148439	255.2782897949219	1575.628051757813	-570.6524658203126	258.3875732421876	1560.755249023438	-495.9202575683595	336.8529968261719	1620.114379882813	-562.3582153320314	-328.0101013183594	1059.644165039063	-894.7135009765627	-310.3797607421876	1039.920532226563	-672.5321655273439	-498.193084716797	1119.901000976563	-763.8702392578126	-504.922821044922	1087.917724609375	-792.8447875976565	-499.4566345214845	1085.376342773438	-733.1804809570314	-360.3896789550782	794.360778808594	-1002.527465820313	-312.1809997558594	726.8063354492189	-1022.631591796875	-265.4111022949219	736.2012939453126	-1020.30322265625	-327.3258972167969	666.7393188476564	-1014.787414550781	-306.8201904296876	578.9593505859376	-1017.223999023438	-268.4317321777344	531.4584960937501	-917.4833984375002	-382.1254272460938	461.5574035644532	-990.1421508789065	-451.3414916992189	514.2196044921876	-1005.628601074219	-439.9790954589845	472.9509277343751	-998.925964355469	-499.6416931152345	441.2876281738282	-942.1143798828127	-687.7185058593751	442.6859741210939	-922.9150390625002	-646.0136718750001	424.9666748046876	-848.4375610351565	-711.8101806640626	506.681610107422	-871.2002563476565	-699.0111694335939	277.5504150390626	-825.5086059570315	-726.9620971679689	278.1092224121094	-857.967468261719	-779.6298828125002	317.7856750488282	-883.9567871093752	-308.5252075195313	776.4964599609377	-608.8019409179689	-255.6621093750001	734.9446411132814	-608.4252319335939	-225.2659606933594	746.7811279296876	-614.8992309570314	-260.3684387207032	650.7344970703126	-624.5093383789064	-262.5042419433594	517.8130493164064	-659.2868041992189	-224.8554687500001	522.2178955078126	-770.746276855469	-251.7677001953126	311.4403686523438	-702.0346069335939	-346.2266540527344	259.9091491699219	-703.1923828125001	-302.2543945312501	244.4889373779297	-705.6732177734376	-290.1184082031251	197.7405242919922	-742.8064575195314	-370.1376342773438	113.3468780517578	-733.9462890625001	-336.1048278808594	139.1791229248047	-814.2946777343752	-438.8440551757814	96.71339416503909	-791.2706298828127	-213.9136962890626	58.72261428833009	-802.0186157226565	-218.0650482177735	56.7050247192383	-756.4287109375001	-273.4474182128907	33.0975685119629	-707.0736694335939	nan	nan	nan	nan	nan	nan	nan	nan	nan	nan	nan	nan	
727	3.63	-222.3001556396485	1727.713623046875	-651.2158203125001	-384.6355895996095	1719.339233398438	-770.2978515625002	-354.8063049316407	1717.633911132813	-631.5745849609376	-438.3052673339845	1555.818115234375	-713.8542480468751	-476.6351013183595	1249.4443359375	-756.2274169921876	nan	nan	nan	-369.0873718261719	1579.544799804688	-865.5022583007815	-204.6837310791016	1552.398315429688	-979.9985351562502	-181.6575775146485	1583.226318359375	-947.8275146484377	-135.5618591308594	1563.49755859375	-979.719665527344	-68.57012176513673	1572.54931640625	-974.524108886719	-62.78073120117189	1499.884033203125	-946.4860839843752	206.2886505126954	1605.50927734375	-875.1040649414065	208.2559356689454	1616.087036132813	-950.7270507812502	283.2476806640626	1649.400024414063	-865.254089355469	-321.9704895019532	1554.821166992188	-567.2398071289064	-157.4484558105469	1492.310180664063	-472.2867431640626	-132.8675384521485	1528.450317382813	-497.5660095214845	-88.63567352294923	1492.942749023438	-475.8839416503907	-27.28706741333009	1510.605346679688	-487.193572998047	-19.63678359985352	1445.69140625	-530.0473632812501	255.497787475586	1575.018798828125	-570.8088378906251	258.6574401855469	1560.155517578125	-496.1231384277345	336.9663391113282	1619.610473632813	-562.4990844726564	-328.2782897949219	1058.959838867188	-894.6477050781252	-310.4141235351563	1039.345458984375	-672.6953735351564	-498.2579650878907	1119.27392578125	-763.9196777343751	-505.1461181640626	1087.575927734375	-792.916931152344	-499.5308532714845	1084.815063476563	-733.2106933593751	-360.3619689941407	793.7254638671877	-1002.55419921875	-312.0400390625001	726.1427612304689	-1022.518127441406	-265.3462524414063	735.6650390625001	-1020.128662109375	-327.1783447265626	666.3447265625001	-1014.666564941406	-306.6802062988282	578.4364624023439	-1016.99169921875	-268.4045410156251	531.1049194335939	-917.2656860351565	-381.9636230468751	461.020965576172	-988.788269042969	-451.126922607422	513.8530883789064	-1005.574340820313	-439.6448974609376	472.6122131347657	-998.671325683594	-499.669891357422	440.9346313476564	-942.552917480469	-687.6854248046876	442.6048278808595	-923.0705566406252	-645.9538574218751	424.8650207519532	-848.507751464844	-711.6971435546876	506.5989685058595	-871.399597167969	-699.1484375000001	277.5895385742188	-825.519714355469	-727.0243530273439	278.1067504882813	-858.0442504882815	-779.667663574219	317.7308959960938	-884.086120605469	-308.0796203613282	776.194763183594	-609.0037841796876	-255.0943756103516	734.7448120117189	-608.8792114257814	-224.930648803711	746.4533691406251	-615.2257080078126	-259.7505493164063	650.4167480468751	-624.7282104492189	-261.5530395507813	517.9450683593751	-659.3641967773439	-224.3838348388672	522.0065307617189	-771.1643066406252	-251.1975402832032	311.1759338378907	-702.6036376953126	-345.8249511718751	259.8577575683594	-703.5252075195314	-301.7644653320313	244.4116210937501	-706.0090942382814	-289.8540344238282	197.5806427001954	-743.1469726562501	-369.9464111328126	113.4063262939453	-734.0875244140626	-336.1962890625001	139.0851440429688	-814.6008911132815	-438.8223876953126	96.69595336914065	-791.3448486328127	-214.0228881835938	58.46208572387697	-802.1148681640627	-218.0511016845704	56.61232757568361	-756.5214233398439	-273.4512023925782	33.12181854248048	-707.1538696289064	nan	nan	nan	nan	nan	nan	nan	nan	nan	nan	nan	nan	
728	3.635	-222.0945129394532	1726.98095703125	-651.3228759765626	-384.0708312988282	1718.789184570313	-770.6660156250002	-354.4193115234376	1716.99560546875	-631.9046630859376	-437.8914489746095	1555.078125	-714.0465698242189	-477.5976562500001	1248.7724609375	-756.8800659179689	nan	nan	nan	-368.4769287109376	1578.909301757813	-865.925964355469	-204.2614746093751	1551.95556640625	-980.1557617187502	-181.4109191894532	1582.281372070313	-947.9429931640627	-135.2464294433594	1562.892211914063	-979.8580322265627	-68.19012451171876	1572.086791992188	-974.578552246094	-62.39602661132814	1499.3095703125	-946.5811767578127	206.5193328857422	1605.183959960938	-875.210388183594	208.5481414794922	1615.530639648438	-950.7982177734377	283.5628051757813	1648.98681640625	-865.296325683594	-321.7787475585938	1554.431762695313	-567.4660644531251	-157.3380737304688	1491.829345703125	-472.3514099121095	-132.5002746582032	1528.421020507813	-497.3751220703126	-88.61876678466798	1492.474609375	-476.0564880371095	-27.21639060974122	1510.181762695313	-487.2232055664064	-19.43664741516114	1445.291870117188	-530.0743408203126	255.6628723144532	1574.369873046875	-570.9220581054689	258.8783874511719	1559.558349609375	-496.1504211425782	337.1523437500001	1618.987182617188	-562.5324707031251	-328.5162658691407	1058.525146484375	-894.8135375976565	-310.4190063476563	1038.70751953125	-672.8224487304689	-498.3208312988282	1118.767333984375	-764.0502929687501	-505.2299194335939	1087.112670898438	-793.0122680664065	-499.7055053710939	1084.31884765625	-733.2293701171876	-360.3488159179688	793.1228637695315	-1002.58447265625	-311.9246520996094	725.5328369140626	-1022.365051269531	-265.1488647460938	734.9163208007814	-1019.950500488281	-327.0493164062501	665.8383789062501	-1014.591552734375	-306.5368347167969	577.9063720703126	-1016.822082519531	-268.3208312988282	530.6719970703126	-917.0002441406252	-381.6289978027344	460.1830444335939	-988.3020019531252	-450.9909057617189	513.4826660156251	-1005.542114257813	-439.3459472656251	472.130340576172	-998.5063476562502	-499.6048889160157	440.6283569335939	-942.5772705078127	-687.5345458984376	442.4414062500001	-923.1926269531252	-645.9807739257814	424.7281799316407	-848.5340576171877	-711.6271972656251	506.5923461914064	-871.6397705078127	-699.2814331054689	277.5938415527344	-825.5633544921877	-727.2658691406251	278.0731506347657	-857.966979980469	-779.6752929687502	317.7220153808594	-884.1860961914065	-307.4617919921876	775.8341064453127	-609.2991333007814	-254.6379547119141	734.5618896484376	-609.2185058593751	-224.5012664794922	746.3325805664064	-615.5375366210939	-258.8941345214844	650.1827392578126	-625.3211059570314	-260.8420715332032	517.6843872070314	-659.7686767578126	-223.9867095947266	521.8635864257814	-771.5628662109377	-250.7045135498047	311.1539001464844	-703.0867919921876	-345.4318542480469	259.8757629394532	-703.8287963867189	-301.4912414550782	244.4172058105469	-706.2805786132814	-289.6700134277344	197.4939422607422	-743.5445556640626	-369.7915954589844	113.4164581298828	-734.3637695312501	-336.1824035644532	139.0098266601563	-814.9473876953127	-438.8068237304689	96.66691589355472	-791.430603027344	-214.0927429199219	58.2311248779297	-802.2825927734377	-217.9940338134766	56.54607009887697	-756.6041259765626	-273.4211730957032	33.20813369750977	-707.1578369140626	nan	nan	nan	nan	nan	nan	nan	nan	nan	nan	nan	nan	
729	3.64	-221.7858123779297	1726.476440429688	-651.6732177734376	-383.6652526855469	1718.17626953125	-770.887390136719	-353.9970092773438	1716.446533203125	-632.3786621093751	-437.6515502929689	1554.470336914063	-714.4297485351564	-477.6204528808595	1248.275512695313	-757.0301513671876	nan	nan	nan	-368.2142639160157	1578.401977539063	-866.1896972656252	-203.9188079833985	1551.487548828125	-980.3184204101565	-181.1442108154297	1582.114013671875	-948.0405273437502	-134.9671630859375	1562.250366210938	-979.940856933594	-67.89454650878908	1571.50244140625	-974.6484985351565	-62.11975097656251	1498.8671875	-946.4826660156252	206.8309173583985	1604.573974609375	-875.1704101562502	208.8892517089844	1615.06005859375	-950.840759277344	283.8067016601563	1648.466064453125	-865.322937011719	-321.5500183105469	1553.903442382813	-567.6479492187501	-157.4310455322266	1491.12353515625	-472.7319335937501	-132.3184204101563	1527.8330078125	-497.4961242675782	-88.41184997558595	1491.9814453125	-476.191375732422	-27.04234313964844	1509.7412109375	-487.3182983398439	-19.35829544067383	1444.670776367188	-530.0150146484376	255.7994232177735	1573.67529296875	-571.0121459960939	258.9927368164063	1558.915161132813	-496.2493286132814	337.4688720703126	1618.268188476563	-562.7241821289064	-328.7747497558594	1058.010986328125	-894.8699340820315	-310.6329650878907	1038.113525390625	-672.9562377929689	-498.4523315429689	1118.407592773438	-764.1538696289064	-505.2881469726564	1086.525146484375	-793.1405029296877	-499.8289489746095	1083.995483398438	-733.3743286132814	-360.3033447265626	792.6058349609377	-1002.560791015625	-311.7035827636719	724.9189453125001	-1022.358947753906	-264.9018859863282	734.3229980468751	-1019.820129394531	-326.8115234375001	665.2315063476564	-1014.499633789063	-306.3155822753907	577.4027709960939	-1016.692810058594	-268.4891967773438	529.7954711914064	-917.0903930664065	-380.8548889160157	459.1382446289064	-988.9644165039065	-450.5570678710939	512.9168090820314	-1005.483459472656	-439.1022338867189	471.7488403320314	-998.3873291015627	-499.5206298828126	440.2690429687501	-942.5471191406252	-687.4461059570314	442.3326110839845	-923.3157348632815	-645.9502563476564	424.6029663085939	-848.5073852539065	-711.5742797851564	506.5886535644532	-871.839294433594	-699.4111938476564	277.5604553222657	-825.6120605468752	-727.3237915039064	277.9909362792969	-857.9935302734377	-779.8212890625002	317.7259521484376	-884.2635498046877	-307.0372619628907	775.385192871094	-609.4844970703126	-254.0172424316407	734.0092773437501	-609.5299682617189	-223.8329620361329	746.0440063476564	-616.1295166015626	-258.3780517578126	649.9472656250001	-625.6921997070314	-260.2372131347657	517.0942382812501	-660.2702026367189	-223.3963317871094	521.6340332031251	-771.9920654296877	-250.247543334961	311.0039978027344	-703.4256591796876	-345.0937194824219	259.8153686523438	-704.0372314453126	-301.1115722656251	244.1018066406251	-706.5842895507814	-289.4886779785157	197.4579315185547	-743.9168090820314	-369.6441955566407	113.3844833374024	-734.6021118164064	-336.1719665527344	138.899398803711	-815.2608032226565	-438.7681274414064	96.69429016113284	-791.5200195312502	-214.1566314697266	58.01887130737306	-802.390319824219	-218.0343627929688	56.48659133911134	-756.6708374023439	-273.3830261230469	33.23910903930665	-707.1748046875001	nan	nan	nan	nan	nan	nan	nan	nan	nan	nan	nan	nan	
